<svg xmlns="http://www.w3.org/2000/svg" width="720" height="380" viewBox="0 0 720 380" font-family="Helvetica,Arial,sans-serif"><rect width="720" height="380" fill="white"/><text x="360.0" y="28" font-size="16" text-anchor="middle" fill="#111" font-weight="bold">E2 — cascade: quality vs judge-call budget</text><line x1="64" y1="324" x2="700" y2="324" stroke="#888"/><line x1="64" y1="50" x2="64" y2="324" stroke="#888"/><line x1="64" y1="324.0" x2="700" y2="324.0" stroke="#eee"/><text x="56" y="328.0" font-size="11" text-anchor="end" fill="#111" font-weight="normal">0.30</text><line x1="64" y1="269.2" x2="700" y2="269.2" stroke="#eee"/><text x="56" y="273.2" font-size="11" text-anchor="end" fill="#111" font-weight="normal">0.40</text><line x1="64" y1="214.39999999999998" x2="700" y2="214.39999999999998" stroke="#eee"/><text x="56" y="218.39999999999998" font-size="11" text-anchor="end" fill="#111" font-weight="normal">0.50</text><line x1="64" y1="159.6" x2="700" y2="159.6" stroke="#eee"/><text x="56" y="163.6" font-size="11" text-anchor="end" fill="#111" font-weight="normal">0.60</text><line x1="64" y1="104.80000000000001" x2="700" y2="104.80000000000001" stroke="#eee"/><text x="56" y="108.80000000000001" font-size="11" text-anchor="end" fill="#111" font-weight="normal">0.70</text><line x1="64" y1="50.0" x2="700" y2="50.0" stroke="#eee"/><text x="56" y="54.0" font-size="11" text-anchor="end" fill="#111" font-weight="normal">0.80</text><text x="382.0" y="366" font-size="13" text-anchor="middle" fill="#111" font-weight="normal">judge-call rate (fraction of documents escalated)</text><text x="16" y="187.0" font-size="13" text-anchor="middle" transform="rotate(-90 16 187.0)">score</text><path d="M 64.0 251.1 L 127.6 220.8 L 191.2 207.9 L 254.8 186.2 L 318.4 182.8 L 382.0 168.5 L 445.6 160.8 L 509.2 149.4 L 604.6 124.0 L 700.0 130.8" fill="none" stroke="#2563eb" stroke-width="2.2"/><circle cx="64.0" cy="251.1" r="2.4" fill="#2563eb"/><circle cx="127.6" cy="220.8" r="2.4" fill="#2563eb"/><circle cx="191.2" cy="207.9" r="2.4" fill="#2563eb"/><circle cx="254.8" cy="186.2" r="2.4" fill="#2563eb"/><circle cx="318.4" cy="182.8" r="2.4" fill="#2563eb"/><circle cx="382.0" cy="168.5" r="2.4" fill="#2563eb"/><circle cx="445.6" cy="160.8" r="2.4" fill="#2563eb"/><circle cx="509.2" cy="149.4" r="2.4" fill="#2563eb"/><circle cx="604.6" cy="124.0" r="2.4" fill="#2563eb"/><circle cx="700.0" cy="130.8" r="2.4" fill="#2563eb"/><path d="M 64.0 163.3 L 127.6 143.2 L 191.2 143.2 L 254.8 132.2 L 318.4 128.5 L 382.0 119.4 L 445.6 112.1 L 509.2 101.1 L 604.6 81.1 L 700.0 88.4" fill="none" stroke="#dc2626" stroke-width="2.2"/><circle cx="64.0" cy="163.3" r="2.4" fill="#dc2626"/><circle cx="127.6" cy="143.2" r="2.4" fill="#dc2626"/><circle cx="191.2" cy="143.2" r="2.4" fill="#dc2626"/><circle cx="254.8" cy="132.2" r="2.4" fill="#dc2626"/><circle cx="318.4" cy="128.5" r="2.4" fill="#dc2626"/><circle cx="382.0" cy="119.4" r="2.4" fill="#dc2626"/><circle cx="445.6" cy="112.1" r="2.4" fill="#dc2626"/><circle cx="509.2" cy="101.1" r="2.4" fill="#dc2626"/><circle cx="604.6" cy="81.1" r="2.4" fill="#dc2626"/><circle cx="700.0" cy="88.4" r="2.4" fill="#dc2626"/><rect x="74" y="54" width="12" height="12" fill="#2563eb"/><text x="90" y="64" font-size="12" text-anchor="start" fill="#111" font-weight="normal">macro-F1</text><rect x="170" y="54" width="12" height="12" fill="#dc2626"/><text x="186" y="64" font-size="12" text-anchor="start" fill="#111" font-weight="normal">agreement</text></svg>