<svg xmlns="http://www.w3.org/2000/svg" width="720" height="380" viewBox="0 0 720 380" font-family="Helvetica,Arial,sans-serif"><rect width="720" height="380" fill="white"/><text x="360.0" y="28" font-size="16" text-anchor="middle" fill="#111" font-weight="bold">E3 — held-out clean-guard FPR during self-improvement</text><line x1="64" y1="324" x2="700" y2="324" stroke="#888"/><line x1="64" y1="50" x2="64" y2="324" stroke="#888"/><line x1="64" y1="324.0" x2="700" y2="324.0" stroke="#eee"/><text x="56" y="328.0" font-size="11" text-anchor="end" fill="#111" font-weight="normal">0.00</text><line x1="64" y1="269.2" x2="700" y2="269.2" stroke="#eee"/><text x="56" y="273.2" font-size="11" text-anchor="end" fill="#111" font-weight="normal">0.12</text><line x1="64" y1="214.39999999999998" x2="700" y2="214.39999999999998" stroke="#eee"/><text x="56" y="218.39999999999998" font-size="11" text-anchor="end" fill="#111" font-weight="normal">0.24</text><line x1="64" y1="159.6" x2="700" y2="159.6" stroke="#eee"/><text x="56" y="163.6" font-size="11" text-anchor="end" fill="#111" font-weight="normal">0.36</text><line x1="64" y1="104.79999999999998" x2="700" y2="104.79999999999998" stroke="#eee"/><text x="56" y="108.79999999999998" font-size="11" text-anchor="end" fill="#111" font-weight="normal">0.48</text><line x1="64" y1="50.0" x2="700" y2="50.0" stroke="#eee"/><text x="56" y="54.0" font-size="11" text-anchor="end" fill="#111" font-weight="normal">0.60</text><text x="382.0" y="366" font-size="13" text-anchor="middle" fill="#111" font-weight="normal">hill-climb iteration</text><text x="16" y="187.0" font-size="13" text-anchor="middle" transform="rotate(-90 16 187.0)">clean-guard false-positive rate</text><path d="M 64.0 324.0 L 85.2 324.0 L 106.4 308.8 L 127.6 88.0 L 148.8 88.0 L 170.0 88.0 L 191.2 88.0 L 212.4 88.0 L 233.6 88.0 L 254.8 88.0 L 276.0 88.0 L 297.2 88.0 L 318.4 88.0 L 339.6 88.0 L 360.8 88.0 L 382.0 88.0 L 403.2 88.0 L 424.4 88.0 L 445.6 88.0 L 466.8 88.0 L 488.0 88.0 L 509.2 88.0 L 530.4 88.0 L 551.6 88.0 L 572.8 88.0 L 594.0 88.0 L 615.2 88.0 L 636.4 88.0 L 657.6 88.0 L 678.8 88.0 L 700.0 88.0" fill="none" stroke="#2563eb" stroke-width="2.2"/><circle cx="64.0" cy="324.0" r="2.4" fill="#2563eb"/><circle cx="85.2" cy="324.0" r="2.4" fill="#2563eb"/><circle cx="106.4" cy="308.8" r="2.4" fill="#2563eb"/><circle cx="127.6" cy="88.0" r="2.4" fill="#2563eb"/><circle cx="148.8" cy="88.0" r="2.4" fill="#2563eb"/><circle cx="170.0" cy="88.0" r="2.4" fill="#2563eb"/><circle cx="191.2" cy="88.0" r="2.4" fill="#2563eb"/><circle cx="212.4" cy="88.0" r="2.4" fill="#2563eb"/><circle cx="233.6" cy="88.0" r="2.4" fill="#2563eb"/><circle cx="254.8" cy="88.0" r="2.4" fill="#2563eb"/><circle cx="276.0" cy="88.0" r="2.4" fill="#2563eb"/><circle cx="297.2" cy="88.0" r="2.4" fill="#2563eb"/><circle cx="318.4" cy="88.0" r="2.4" fill="#2563eb"/><circle cx="339.6" cy="88.0" r="2.4" fill="#2563eb"/><circle cx="360.8" cy="88.0" r="2.4" fill="#2563eb"/><circle cx="382.0" cy="88.0" r="2.4" fill="#2563eb"/><circle cx="403.2" cy="88.0" r="2.4" fill="#2563eb"/><circle cx="424.4" cy="88.0" r="2.4" fill="#2563eb"/><circle cx="445.6" cy="88.0" r="2.4" fill="#2563eb"/><circle cx="466.8" cy="88.0" r="2.4" fill="#2563eb"/><circle cx="488.0" cy="88.0" r="2.4" fill="#2563eb"/><circle cx="509.2" cy="88.0" r="2.4" fill="#2563eb"/><circle cx="530.4" cy="88.0" r="2.4" fill="#2563eb"/><circle cx="551.6" cy="88.0" r="2.4" fill="#2563eb"/><circle cx="572.8" cy="88.0" r="2.4" fill="#2563eb"/><circle cx="594.0" cy="88.0" r="2.4" fill="#2563eb"/><circle cx="615.2" cy="88.0" r="2.4" fill="#2563eb"/><circle cx="636.4" cy="88.0" r="2.4" fill="#2563eb"/><circle cx="657.6" cy="88.0" r="2.4" fill="#2563eb"/><circle cx="678.8" cy="88.0" r="2.4" fill="#2563eb"/><circle cx="700.0" cy="88.0" r="2.4" fill="#2563eb"/><path d="M 64.0 324.0 L 85.2 324.0 L 106.4 324.0 L 127.6 324.0 L 148.8 324.0 L 170.0 324.0 L 191.2 324.0 L 212.4 316.4 L 233.6 316.4 L 254.8 316.4 L 276.0 316.4 L 297.2 316.4 L 318.4 316.4 L 339.6 316.4 L 360.8 316.4 L 382.0 316.4 L 403.2 316.4 L 424.4 316.4 L 445.6 316.4 L 466.8 316.4 L 488.0 316.4 L 509.2 316.4 L 530.4 316.4 L 551.6 316.4 L 572.8 316.4 L 594.0 316.4 L 615.2 316.4 L 636.4 316.4 L 657.6 316.4 L 678.8 316.4 L 700.0 316.4" fill="none" stroke="#dc2626" stroke-width="2.2"/><circle cx="64.0" cy="324.0" r="2.4" fill="#dc2626"/><circle cx="85.2" cy="324.0" r="2.4" fill="#dc2626"/><circle cx="106.4" cy="324.0" r="2.4" fill="#dc2626"/><circle cx="127.6" cy="324.0" r="2.4" fill="#dc2626"/><circle cx="148.8" cy="324.0" r="2.4" fill="#dc2626"/><circle cx="170.0" cy="324.0" r="2.4" fill="#dc2626"/><circle cx="191.2" cy="324.0" r="2.4" fill="#dc2626"/><circle cx="212.4" cy="316.4" r="2.4" fill="#dc2626"/><circle cx="233.6" cy="316.4" r="2.4" fill="#dc2626"/><circle cx="254.8" cy="316.4" r="2.4" fill="#dc2626"/><circle cx="276.0" cy="316.4" r="2.4" fill="#dc2626"/><circle cx="297.2" cy="316.4" r="2.4" fill="#dc2626"/><circle cx="318.4" cy="316.4" r="2.4" fill="#dc2626"/><circle cx="339.6" cy="316.4" r="2.4" fill="#dc2626"/><circle cx="360.8" cy="316.4" r="2.4" fill="#dc2626"/><circle cx="382.0" cy="316.4" r="2.4" fill="#dc2626"/><circle cx="403.2" cy="316.4" r="2.4" fill="#dc2626"/><circle cx="424.4" cy="316.4" r="2.4" fill="#dc2626"/><circle cx="445.6" cy="316.4" r="2.4" fill="#dc2626"/><circle cx="466.8" cy="316.4" r="2.4" fill="#dc2626"/><circle cx="488.0" cy="316.4" r="2.4" fill="#dc2626"/><circle cx="509.2" cy="316.4" r="2.4" fill="#dc2626"/><circle cx="530.4" cy="316.4" r="2.4" fill="#dc2626"/><circle cx="551.6" cy="316.4" r="2.4" fill="#dc2626"/><circle cx="572.8" cy="316.4" r="2.4" fill="#dc2626"/><circle cx="594.0" cy="316.4" r="2.4" fill="#dc2626"/><circle cx="615.2" cy="316.4" r="2.4" fill="#dc2626"/><circle cx="636.4" cy="316.4" r="2.4" fill="#dc2626"/><circle cx="657.6" cy="316.4" r="2.4" fill="#dc2626"/><circle cx="678.8" cy="316.4" r="2.4" fill="#dc2626"/><circle cx="700.0" cy="316.4" r="2.4" fill="#dc2626"/><path d="M 64.0 324.0 L 85.2 324.0 L 106.4 324.0 L 127.6 324.0 L 148.8 324.0 L 170.0 324.0 L 191.2 324.0 L 212.4 324.0 L 233.6 324.0 L 254.8 324.0 L 276.0 324.0 L 297.2 324.0 L 318.4 324.0 L 339.6 324.0 L 360.8 324.0 L 382.0 324.0 L 403.2 324.0 L 424.4 324.0 L 445.6 324.0 L 466.8 324.0 L 488.0 324.0 L 509.2 324.0 L 530.4 324.0 L 551.6 324.0 L 572.8 324.0 L 594.0 324.0 L 615.2 324.0 L 636.4 324.0 L 657.6 324.0 L 678.8 324.0 L 700.0 324.0" fill="none" stroke="#059669" stroke-width="2.2"/><circle cx="64.0" cy="324.0" r="2.4" fill="#059669"/><circle cx="85.2" cy="324.0" r="2.4" fill="#059669"/><circle cx="106.4" cy="324.0" r="2.4" fill="#059669"/><circle cx="127.6" cy="324.0" r="2.4" fill="#059669"/><circle cx="148.8" cy="324.0" r="2.4" fill="#059669"/><circle cx="170.0" cy="324.0" r="2.4" fill="#059669"/><circle cx="191.2" cy="324.0" r="2.4" fill="#059669"/><circle cx="212.4" cy="324.0" r="2.4" fill="#059669"/><circle cx="233.6" cy="324.0" r="2.4" fill="#059669"/><circle cx="254.8" cy="324.0" r="2.4" fill="#059669"/><circle cx="276.0" cy="324.0" r="2.4" fill="#059669"/><circle cx="297.2" cy="324.0" r="2.4" fill="#059669"/><circle cx="318.4" cy="324.0" r="2.4" fill="#059669"/><circle cx="339.6" cy="324.0" r="2.4" fill="#059669"/><circle cx="360.8" cy="324.0" r="2.4" fill="#059669"/><circle cx="382.0" cy="324.0" r="2.4" fill="#059669"/><circle cx="403.2" cy="324.0" r="2.4" fill="#059669"/><circle cx="424.4" cy="324.0" r="2.4" fill="#059669"/><circle cx="445.6" cy="324.0" r="2.4" fill="#059669"/><circle cx="466.8" cy="324.0" r="2.4" fill="#059669"/><circle cx="488.0" cy="324.0" r="2.4" fill="#059669"/><circle cx="509.2" cy="324.0" r="2.4" fill="#059669"/><circle cx="530.4" cy="324.0" r="2.4" fill="#059669"/><circle cx="551.6" cy="324.0" r="2.4" fill="#059669"/><circle cx="572.8" cy="324.0" r="2.4" fill="#059669"/><circle cx="594.0" cy="324.0" r="2.4" fill="#059669"/><circle cx="615.2" cy="324.0" r="2.4" fill="#059669"/><circle cx="636.4" cy="324.0" r="2.4" fill="#059669"/><circle cx="657.6" cy="324.0" r="2.4" fill="#059669"/><circle cx="678.8" cy="324.0" r="2.4" fill="#059669"/><circle cx="700.0" cy="324.0" r="2.4" fill="#059669"/><rect x="74" y="54" width="12" height="12" fill="#2563eb"/><text x="90" y="64" font-size="12" text-anchor="start" fill="#111" font-weight="normal">naive (recall): guard FPR</text><rect x="289" y="54" width="12" height="12" fill="#dc2626"/><text x="305" y="64" font-size="12" text-anchor="start" fill="#111" font-weight="normal">naive (F1): guard FPR</text><rect x="476" y="54" width="12" height="12" fill="#059669"/><text x="492" y="64" font-size="12" text-anchor="start" fill="#111" font-weight="normal">verified: guard FPR</text></svg>