<svg xmlns="http://www.w3.org/2000/svg" width="720" height="380" viewBox="0 0 720 380" font-family="Helvetica,Arial,sans-serif"><rect width="720" height="380" fill="white"/><text x="360.0" y="28" font-size="16" text-anchor="middle" fill="#111" font-weight="bold">E4 — drift detection &amp; recovery on a daily stream</text><line x1="64" y1="324" x2="700" y2="324" stroke="#888"/><line x1="64" y1="50" x2="64" y2="324" stroke="#888"/><line x1="64" y1="324.0" x2="700" y2="324.0" stroke="#eee"/><text x="56" y="328.0" font-size="11" text-anchor="end" fill="#111" font-weight="normal">0.40</text><line x1="64" y1="269.2" x2="700" y2="269.2" stroke="#eee"/><text x="56" y="273.2" font-size="11" text-anchor="end" fill="#111" font-weight="normal">0.52</text><line x1="64" y1="214.39999999999998" x2="700" y2="214.39999999999998" stroke="#eee"/><text x="56" y="218.39999999999998" font-size="11" text-anchor="end" fill="#111" font-weight="normal">0.64</text><line x1="64" y1="159.6" x2="700" y2="159.6" stroke="#eee"/><text x="56" y="163.6" font-size="11" text-anchor="end" fill="#111" font-weight="normal">0.76</text><line x1="64" y1="104.79999999999998" x2="700" y2="104.79999999999998" stroke="#eee"/><text x="56" y="108.79999999999998" font-size="11" text-anchor="end" fill="#111" font-weight="normal">0.88</text><line x1="64" y1="50.0" x2="700" y2="50.0" stroke="#eee"/><text x="56" y="54.0" font-size="11" text-anchor="end" fill="#111" font-weight="normal">1.00</text><text x="382.0" y="366" font-size="13" text-anchor="middle" fill="#111" font-weight="normal">day</text><text x="16" y="187.0" font-size="13" text-anchor="middle" transform="rotate(-90 16 187.0)">mean gate quality</text><line x1="393.0" y1="50" x2="393.0" y2="324" stroke="#999" stroke-dasharray="4 3"/><text x="392.96551724137936" y="46" font-size="11" text-anchor="middle" fill="#666" font-weight="normal">parser regression</text><path d="M 64.0 119.7 L 85.9 103.8 L 107.9 101.7 L 129.8 104.4 L 151.7 113.9 L 173.7 89.3 L 195.6 86.7 L 217.5 106.2 L 239.4 91.1 L 261.4 107.8 L 283.3 115.7 L 305.2 89.6 L 327.2 109.8 L 349.1 96.1 L 371.0 91.1 L 393.0 252.3 L 414.9 152.8 L 436.8 129.9 L 458.8 118.5 L 480.7 107.1 L 502.6 164.2 L 524.6 152.8 L 546.5 129.9 L 568.4 152.8 L 590.3 152.8 L 612.3 118.5 L 634.2 129.9 L 656.1 164.2 L 678.1 107.1 L 700.0 141.3" fill="none" stroke="#2563eb" stroke-width="2.2"/><circle cx="64.0" cy="119.7" r="2.4" fill="#2563eb"/><circle cx="85.9" cy="103.8" r="2.4" fill="#2563eb"/><circle cx="107.9" cy="101.7" r="2.4" fill="#2563eb"/><circle cx="129.8" cy="104.4" r="2.4" fill="#2563eb"/><circle cx="151.7" cy="113.9" r="2.4" fill="#2563eb"/><circle cx="173.7" cy="89.3" r="2.4" fill="#2563eb"/><circle cx="195.6" cy="86.7" r="2.4" fill="#2563eb"/><circle cx="217.5" cy="106.2" r="2.4" fill="#2563eb"/><circle cx="239.4" cy="91.1" r="2.4" fill="#2563eb"/><circle cx="261.4" cy="107.8" r="2.4" fill="#2563eb"/><circle cx="283.3" cy="115.7" r="2.4" fill="#2563eb"/><circle cx="305.2" cy="89.6" r="2.4" fill="#2563eb"/><circle cx="327.2" cy="109.8" r="2.4" fill="#2563eb"/><circle cx="349.1" cy="96.1" r="2.4" fill="#2563eb"/><circle cx="371.0" cy="91.1" r="2.4" fill="#2563eb"/><circle cx="393.0" cy="252.3" r="2.4" fill="#2563eb"/><circle cx="414.9" cy="152.8" r="2.4" fill="#2563eb"/><circle cx="436.8" cy="129.9" r="2.4" fill="#2563eb"/><circle cx="458.8" cy="118.5" r="2.4" fill="#2563eb"/><circle cx="480.7" cy="107.1" r="2.4" fill="#2563eb"/><circle cx="502.6" cy="164.2" r="2.4" fill="#2563eb"/><circle cx="524.6" cy="152.8" r="2.4" fill="#2563eb"/><circle cx="546.5" cy="129.9" r="2.4" fill="#2563eb"/><circle cx="568.4" cy="152.8" r="2.4" fill="#2563eb"/><circle cx="590.3" cy="152.8" r="2.4" fill="#2563eb"/><circle cx="612.3" cy="118.5" r="2.4" fill="#2563eb"/><circle cx="634.2" cy="129.9" r="2.4" fill="#2563eb"/><circle cx="656.1" cy="164.2" r="2.4" fill="#2563eb"/><circle cx="678.1" cy="107.1" r="2.4" fill="#2563eb"/><circle cx="700.0" cy="141.3" r="2.4" fill="#2563eb"/><rect x="74" y="54" width="12" height="12" fill="#2563eb"/><text x="90" y="64" font-size="12" text-anchor="start" fill="#111" font-weight="normal">daily extraction quality</text></svg>