<svg xmlns="http://www.w3.org/2000/svg" width="720" height="380" viewBox="0 0 720 380" font-family="Helvetica,Arial,sans-serif"><rect width="720" height="380" fill="white"/><text x="360.0" y="28" font-size="16" text-anchor="middle" fill="#111" font-weight="bold">E5 — outlier detection: robust-z vs mean ± kσ</text><line x1="60" y1="320" x2="700" y2="320" stroke="#888"/><line x1="60" y1="50" x2="60" y2="320" stroke="#888"/><line x1="60" y1="320.0" x2="700" y2="320.0" stroke="#eee"/><text x="52" y="324.0" font-size="11" text-anchor="end" fill="#111" font-weight="normal">0.0</text><line x1="60" y1="266.0" x2="700" y2="266.0" stroke="#eee"/><text x="52" y="270.0" font-size="11" text-anchor="end" fill="#111" font-weight="normal">0.2</text><line x1="60" y1="212.0" x2="700" y2="212.0" stroke="#eee"/><text x="52" y="216.0" font-size="11" text-anchor="end" fill="#111" font-weight="normal">0.4</text><line x1="60" y1="158.0" x2="700" y2="158.0" stroke="#eee"/><text x="52" y="162.0" font-size="11" text-anchor="end" fill="#111" font-weight="normal">0.6</text><line x1="60" y1="104.0" x2="700" y2="104.0" stroke="#eee"/><text x="52" y="108.0" font-size="11" text-anchor="end" fill="#111" font-weight="normal">0.8</text><line x1="60" y1="50.0" x2="700" y2="50.0" stroke="#eee"/><text x="52" y="54.0" font-size="11" text-anchor="end" fill="#111" font-weight="normal">1.0</text><rect x="81.3" y="84.4" width="76.8" height="235.6" fill="#2563eb"/><text x="119.73333333333335" y="80.37099999999998" font-size="10" text-anchor="middle" fill="#111" font-weight="normal">0.87</text><rect x="166.7" y="104.0" width="76.8" height="216.0" fill="#dc2626"/><text x="205.0666666666667" y="100.0" font-size="10" text-anchor="middle" fill="#111" font-weight="normal">0.80</text><text x="166.66666666666669" y="338" font-size="12" text-anchor="middle" fill="#111" font-weight="normal">precision</text><rect x="294.7" y="50.0" width="76.8" height="270.0" fill="#2563eb"/><text x="333.0666666666667" y="46.0" font-size="10" text-anchor="middle" fill="#111" font-weight="normal">1.00</text><rect x="380.0" y="50.0" width="76.8" height="270.0" fill="#dc2626"/><text x="418.4" y="46.0" font-size="10" text-anchor="middle" fill="#111" font-weight="normal">1.00</text><text x="380.00000000000006" y="338" font-size="12" text-anchor="middle" fill="#111" font-weight="normal">recall</text><rect x="508.0" y="68.4" width="76.8" height="251.6" fill="#2563eb"/><text x="546.4" y="64.35999999999999" font-size="10" text-anchor="middle" fill="#111" font-weight="normal">0.93</text><rect x="593.3" y="80.0" width="76.8" height="240.0" fill="#dc2626"/><text x="631.7333333333333" y="75.99699999999999" font-size="10" text-anchor="middle" fill="#111" font-weight="normal">0.89</text><text x="593.3333333333334" y="338" font-size="12" text-anchor="middle" fill="#111" font-weight="normal">f1</text><rect x="70" y="352" width="12" height="12" fill="#2563eb"/><text x="86" y="362" font-size="12" text-anchor="start" fill="#111" font-weight="normal">robust-z (MAD)</text><rect x="198" y="352" width="12" height="12" fill="#dc2626"/><text x="214" y="362" font-size="12" text-anchor="start" fill="#111" font-weight="normal">mean ± kσ</text></svg>