<svg xmlns="http://www.w3.org/2000/svg" width="720" height="380" viewBox="0 0 720 380" font-family="Helvetica,Arial,sans-serif"><rect width="720" height="380" fill="white"/><text x="360.0" y="28" font-size="16" text-anchor="middle" fill="#111" font-weight="bold">E6 — drift-triggered self-improvement (tag-leak recovery)</text><line x1="60" y1="320" x2="700" y2="320" stroke="#888"/><line x1="60" y1="50" x2="60" y2="320" stroke="#888"/><line x1="60" y1="320.0" x2="700" y2="320.0" stroke="#eee"/><text x="52" y="324.0" font-size="11" text-anchor="end" fill="#111" font-weight="normal">0.0</text><line x1="60" y1="266.0" x2="700" y2="266.0" stroke="#eee"/><text x="52" y="270.0" font-size="11" text-anchor="end" fill="#111" font-weight="normal">0.2</text><line x1="60" y1="212.0" x2="700" y2="212.0" stroke="#eee"/><text x="52" y="216.0" font-size="11" text-anchor="end" fill="#111" font-weight="normal">0.4</text><line x1="60" y1="158.0" x2="700" y2="158.0" stroke="#eee"/><text x="52" y="162.0" font-size="11" text-anchor="end" fill="#111" font-weight="normal">0.6</text><line x1="60" y1="104.0" x2="700" y2="104.0" stroke="#eee"/><text x="52" y="108.0" font-size="11" text-anchor="end" fill="#111" font-weight="normal">0.8</text><line x1="60" y1="50.0" x2="700" y2="50.0" stroke="#eee"/><text x="52" y="54.0" font-size="11" text-anchor="end" fill="#111" font-weight="normal">1.0</text><rect x="81.3" y="301.0" width="76.8" height="19.0" fill="#2563eb"/><text x="119.73333333333335" y="296.96500000000003" font-size="10" text-anchor="middle" fill="#111" font-weight="normal">0.07</text><rect x="166.7" y="313.2" width="76.8" height="6.8" fill="#dc2626"/><text x="205.0666666666667" y="309.25" font-size="10" text-anchor="middle" fill="#111" font-weight="normal">0.03</text><text x="166.66666666666669" y="338" font-size="12" text-anchor="middle" fill="#111" font-weight="normal">blind (before)</text><rect x="294.7" y="54.5" width="76.8" height="265.5" fill="#2563eb"/><text x="333.0666666666667" y="50.509000000000015" font-size="10" text-anchor="middle" fill="#111" font-weight="normal">0.98</text><rect x="380.0" y="320.0" width="76.8" height="0.0" fill="#dc2626"/><text x="418.4" y="316.0" font-size="10" text-anchor="middle" fill="#111" font-weight="normal">0.00</text><text x="380.00000000000006" y="338" font-size="12" text-anchor="middle" fill="#111" font-weight="normal">verified</text><rect x="508.0" y="80.0" width="76.8" height="240.0" fill="#2563eb"/><text x="546.4" y="75.99699999999999" font-size="10" text-anchor="middle" fill="#111" font-weight="normal">0.89</text><rect x="593.3" y="252.5" width="76.8" height="67.5" fill="#dc2626"/><text x="631.7333333333333" y="248.5" font-size="10" text-anchor="middle" fill="#111" font-weight="normal">0.25</text><text x="593.3333333333334" y="338" font-size="12" text-anchor="middle" fill="#111" font-weight="normal">naive_recall</text><rect x="70" y="352" width="12" height="12" fill="#2563eb"/><text x="86" y="362" font-size="12" text-anchor="start" fill="#111" font-weight="normal">held-out F1 on drift</text><rect x="240" y="352" width="12" height="12" fill="#dc2626"/><text x="256" y="362" font-size="12" text-anchor="start" fill="#111" font-weight="normal">clean-guard FPR</text></svg>