<svg xmlns="http://www.w3.org/2000/svg" width="720" height="380" viewBox="0 0 720 380" font-family="Helvetica,Arial,sans-serif"><rect width="720" height="380" fill="white"/><text x="360.0" y="28" font-size="16" text-anchor="middle" fill="#111" font-weight="bold">E7 — gates vs external reference-free baselines (held-out F1)</text><line x1="60" y1="320" x2="700" y2="320" stroke="#888"/><line x1="60" y1="50" x2="60" y2="320" stroke="#888"/><line x1="60" y1="320.0" x2="700" y2="320.0" stroke="#eee"/><text x="52" y="324.0" font-size="11" text-anchor="end" fill="#111" font-weight="normal">0.0</text><line x1="60" y1="266.0" x2="700" y2="266.0" stroke="#eee"/><text x="52" y="270.0" font-size="11" text-anchor="end" fill="#111" font-weight="normal">0.2</text><line x1="60" y1="212.0" x2="700" y2="212.0" stroke="#eee"/><text x="52" y="216.0" font-size="11" text-anchor="end" fill="#111" font-weight="normal">0.4</text><line x1="60" y1="158.0" x2="700" y2="158.0" stroke="#eee"/><text x="52" y="162.0" font-size="11" text-anchor="end" fill="#111" font-weight="normal">0.6</text><line x1="60" y1="104.0" x2="700" y2="104.0" stroke="#eee"/><text x="52" y="108.0" font-size="11" text-anchor="end" fill="#111" font-weight="normal">0.8</text><line x1="60" y1="50.0" x2="700" y2="50.0" stroke="#eee"/><text x="52" y="54.0" font-size="11" text-anchor="end" fill="#111" font-weight="normal">1.0</text><rect x="81.3" y="80.6" width="76.8" height="239.4" fill="#2563eb"/><text x="119.73333333333335" y="76.59099999999998" font-size="10" text-anchor="middle" fill="#111" font-weight="normal">0.89</text><rect x="166.7" y="267.6" width="76.8" height="52.4" fill="#dc2626"/><text x="205.0666666666667" y="263.566" font-size="10" text-anchor="middle" fill="#111" font-weight="normal">0.19</text><text x="166.66666666666669" y="338" font-size="12" text-anchor="middle" fill="#111" font-weight="normal">html</text><rect x="294.7" y="99.7" width="76.8" height="220.3" fill="#2563eb"/><text x="333.0666666666667" y="95.68" font-size="10" text-anchor="middle" fill="#111" font-weight="normal">0.82</text><rect x="380.0" y="120.3" width="76.8" height="199.7" fill="#dc2626"/><text x="418.4" y="116.30799999999999" font-size="10" text-anchor="middle" fill="#111" font-weight="normal">0.74</text><text x="380.00000000000006" y="338" font-size="12" text-anchor="middle" fill="#111" font-weight="normal">ocr</text><rect x="508.0" y="50.0" width="76.8" height="270.0" fill="#2563eb"/><text x="546.4" y="46.0" font-size="10" text-anchor="middle" fill="#111" font-weight="normal">1.00</text><rect x="593.3" y="99.8" width="76.8" height="220.2" fill="#dc2626"/><text x="631.7333333333333" y="95.84199999999998" font-size="10" text-anchor="middle" fill="#111" font-weight="normal">0.82</text><text x="593.3333333333334" y="338" font-size="12" text-anchor="middle" fill="#111" font-weight="normal">json</text><rect x="70" y="352" width="12" height="12" fill="#2563eb"/><text x="86" y="362" font-size="12" text-anchor="start" fill="#111" font-weight="normal">autocurate gate</text><rect x="205" y="352" width="12" height="12" fill="#dc2626"/><text x="221" y="362" font-size="12" text-anchor="start" fill="#111" font-weight="normal">best external baseline</text></svg>