<svg xmlns="http://www.w3.org/2000/svg" width="860" height="300" viewBox="0 0 860 300" font-family="Helvetica,Arial,sans-serif">
<rect width="860" height="300" fill="white"/>
<text x="430" y="26" font-size="17" text-anchor="middle" font-weight="bold">The AutoCurate operating loop (one daily tick)</text>
<g font-size="12.5" text-anchor="middle">
<rect x="20" y="70" width="120" height="56" rx="8" fill="#dbeafe" stroke="#2563eb"/><text x="80" y="94">crawl shards</text><text x="80" y="112">+ provenance</text>
<rect x="165" y="70" width="120" height="56" rx="8" fill="#dbeafe" stroke="#2563eb"/><text x="225" y="94">extraction gates</text><text x="225" y="112">HTML/OCR/JSON</text>
<rect x="310" y="70" width="120" height="56" rx="8" fill="#dbeafe" stroke="#2563eb"/><text x="370" y="90">profile +</text><text x="370" y="106">outlier screen</text>
<rect x="455" y="70" width="120" height="56" rx="8" fill="#dbeafe" stroke="#2563eb"/><text x="515" y="90">cascade route</text><text x="515" y="106">judge the middle</text>
<rect x="600" y="70" width="115" height="56" rx="8" fill="#dcfce7" stroke="#059669"/><text x="657" y="90">decision +</text><text x="657" y="106">quality report</text>
<rect x="310" y="180" width="170" height="56" rx="8" fill="#fee2e2" stroke="#dc2626"/><text x="395" y="202">verify (mutation oracle)</text><text x="395" y="220">+ verified hill-climb</text>
<rect x="520" y="180" width="195" height="56" rx="8" fill="#fef9c3" stroke="#d97706"/><text x="617" y="202">SPC drift monitor</text><text x="617" y="220">throughput &amp; quality</text>
</g>
<g stroke="#555" fill="none" stroke-width="1.6" marker-end="url(#a)">
<defs><marker id="a" markerWidth="9" markerHeight="9" refX="7" refY="3" orient="auto"><path d="M0,0 L7,3 L0,6 Z" fill="#555"/></marker></defs>
<path d="M140,98 L162,98"/><path d="M285,98 L307,98"/><path d="M430,98 L452,98"/><path d="M575,98 L597,98"/>
<path d="M657,128 L657,160 L720,160 L720,205 L718,205"/>
<path d="M520,180 L520,150 L516,150"/>
<path d="M395,180 L395,150 L375,150 L375,128"/>
<path d="M310,208 L150,208 L150,128"/>
</g>
<text x="225" y="262" font-size="11.5" text-anchor="middle" fill="#dc2626">drift / quality regression → trigger verified hill-climb → re-extract</text>
</svg>